<svg xmlns="http://www.w3.org/2000/svg" viewBox="0 0 1024 1024" width="1024" height="1024">
  <defs>
    <linearGradient id="bg" x1="0" y1="0" x2="0" y2="1">
      <stop offset="0%" stop-color="#16A34A"/>
      <stop offset="100%" stop-color="#22C55E"/>
    </linearGradient>
    <filter id="shadow" x="-10%" y="-10%" width="120%" height="130%">
      <feDropShadow dx="6" dy="10" stdDeviation="14" flood-color="#004d14" flood-opacity="0.28"/>
    </filter>
    <clipPath id="roundsq">
      <rect width="1024" height="1024" rx="220" ry="220"/>
    </clipPath>
  </defs>

  <!-- background -->
  <rect width="1024" height="1024" rx="220" ry="220" fill="url(#bg)"/>

  <!-- wallet body -->
  <rect x="160" y="330" width="704" height="490" rx="72" ry="72"
        fill="white" fill-opacity="0.94" filter="url(#shadow)"/>

  <!-- wallet flap strip -->
  <rect x="160" y="296" width="704" height="68" rx="34" ry="34"
        fill="white" fill-opacity="0.80"/>

  <!-- card slot lines -->
  <rect x="220" y="344" width="424" height="8" rx="4" fill="#16A34A" fill-opacity="0.25"/>
  <rect x="220" y="360" width="424" height="8" rx="4" fill="#16A34A" fill-opacity="0.25"/>

  <!-- clasp circle -->
  <circle cx="924" cy="330" r="32" fill="#15803D" fill-opacity="0.78"/>
  <circle cx="924" cy="330" r="22" fill="#16A34A" fill-opacity="0.94"/>

  <!-- pie chart background ring -->
  <circle cx="512" cy="608" r="178" fill="#F0FDF4"/>
  <path d="M 512,608 L 512.00,448.00 A 160,160 0 1,1 462.56,760.17 Z" fill="#15803D"/>
  <path d="M 512,608 L 462.56,760.17 A 160,160 0 0,1 382.56,513.95 Z" fill="#FFFFFF"/>
  <path d="M 512,608 L 382.56,513.95 A 160,160 0 0,1 512.00,448.00 Z" fill="#22C55E"/>
  <line x1="512" y1="608" x2="512.0" y2="448.0" stroke="white" stroke-width="5" stroke-opacity="0.80"/>
  <line x1="512" y1="608" x2="462.6" y2="760.2" stroke="white" stroke-width="5" stroke-opacity="0.80"/>
  <line x1="512" y1="608" x2="382.6" y2="514.0" stroke="white" stroke-width="5" stroke-opacity="0.80"/>

  <!-- donut hole -->
  <circle cx="512" cy="608" r="62" fill="#F0FDF4"/>
  <circle cx="512" cy="608" r="18" fill="#16A34A" fill-opacity="0.86"/>

  <!-- top accent dots -->
  <circle cx="512" cy="190" r="52" fill="white" fill-opacity="0.20"/>
  <circle cx="512" cy="190" r="38" fill="white" fill-opacity="0.35"/>

</svg>